<svg width="200" height="59" viewBox="0 0 200 59" fill="none" xmlns="http://www.w3.org/2000/svg">
<g clip-path="url(#clip0_115_6644)">
<path d="M192.884 59H7.00593C3.1437 59 0 55.8612 0 52.0188V6.97085C0 3.127 3.1437 0 7.00593 0H192.884C196.745 0 200 3.127 200 6.97085V52.0188C200 55.8612 196.745 59 192.884 59Z" fill="#A6A6A6"/>
<path d="M198.566 52.0201C198.566 55.1412 196.027 57.6693 192.886 57.6693H7.00601C3.86675 57.6693 1.3186 55.1412 1.3186 52.0201V6.96913C1.3186 3.8495 3.86675 1.3125 7.00601 1.3125H192.885C196.027 1.3125 198.565 3.8495 198.565 6.96913L198.566 52.0201Z" fill="black"/>
<path d="M44.634 29.1814C44.5911 24.4275 48.5437 22.1147 48.7244 22.007C46.4859 18.7576 43.0163 18.3136 41.797 18.2782C38.8829 17.9729 36.0563 20.0143 34.5718 20.0143C33.0577 20.0143 30.7718 18.3077 28.3081 18.3578C25.1377 18.4065 22.1718 20.234 20.5451 23.0719C17.1881 28.8584 19.6918 37.3617 22.9081 42.039C24.517 44.3296 26.397 46.8873 28.8577 46.7973C31.2651 46.6985 32.1644 45.2692 35.0696 45.2692C37.9481 45.2692 38.7925 46.7973 41.3022 46.7398C43.8859 46.6985 45.5125 44.4388 47.0651 42.1275C48.9244 39.502 49.6711 36.9163 49.7007 36.7835C49.64 36.7629 44.6829 34.8793 44.634 29.1814Z" fill="white"/>
<path d="M39.8933 15.2012C41.1881 13.589 42.0741 11.3957 41.8281 9.16992C39.9541 9.25252 37.6103 10.4605 36.2607 12.0373C35.0666 13.4268 34 15.7042 34.2755 17.8459C36.3807 18.0022 38.5422 16.7883 39.8933 15.2012Z" fill="white"/>
<path d="M79.474 46.4691H76.1096L74.2666 40.7034H67.8607L66.1051 46.4691H62.8296L69.1763 26.8398H73.0963L79.474 46.4691ZM73.7111 38.2844L72.0444 33.1587C71.8681 32.6351 71.5377 31.402 71.0503 29.4609H70.9911C70.797 30.2958 70.4844 31.5289 70.0548 33.1587L68.4177 38.2844H73.7111Z" fill="white"/>
<path d="M95.7956 39.218C95.7956 41.6252 95.1423 43.5279 93.8356 44.9248C92.6652 46.1682 91.2119 46.7892 89.4771 46.7892C87.6045 46.7892 86.2593 46.1195 85.44 44.7802H85.3808V52.2363H82.2223V36.9745C82.2223 35.4612 82.1823 33.908 82.1052 32.315H84.883L85.0593 34.5585H85.1186C86.1719 32.8681 87.7704 32.0244 89.9156 32.0244C91.5926 32.0244 92.9926 32.6837 94.1126 34.0039C95.2356 35.3255 95.7956 37.063 95.7956 39.218ZM92.5778 39.333C92.5778 37.9554 92.2667 36.8196 91.6415 35.9258C90.9586 34.9936 90.0415 34.5275 88.8919 34.5275C88.1126 34.5275 87.4045 34.7871 86.7719 35.2989C86.1378 35.8152 85.723 36.4892 85.5289 37.3241C85.4311 37.7135 85.3823 38.0321 85.3823 38.2828V40.6428C85.3823 41.6724 85.6993 42.5412 86.3334 43.2506C86.9674 43.9601 87.7911 44.3141 88.8045 44.3141C89.9941 44.3141 90.92 43.8569 91.5823 42.9453C92.246 42.0323 92.5778 40.8287 92.5778 39.333Z" fill="white"/>
<path d="M112.147 39.218C112.147 41.6252 111.493 43.5279 110.185 44.9248C109.016 46.1682 107.563 46.7892 105.828 46.7892C103.956 46.7892 102.61 46.1195 101.793 44.7802H101.733V52.2363H98.5748V36.9745C98.5748 35.4612 98.5348 33.908 98.4578 32.315H101.236L101.412 34.5585H101.471C102.523 32.8681 104.121 32.0244 106.268 32.0244C107.944 32.0244 109.344 32.6837 110.467 34.0039C111.585 35.3255 112.147 37.063 112.147 39.218ZM108.929 39.333C108.929 37.9554 108.616 36.8196 107.991 35.9258C107.308 34.9936 106.394 34.5275 105.243 34.5275C104.462 34.5275 103.756 34.7871 103.121 35.2989C102.487 35.8152 102.074 36.4892 101.88 37.3241C101.784 37.7135 101.733 38.0321 101.733 38.2828V40.6428C101.733 41.6724 102.05 42.5412 102.681 43.2506C103.316 43.9586 104.139 44.3141 105.156 44.3141C106.345 44.3141 107.271 43.8569 107.933 42.9453C108.597 42.0323 108.929 40.8287 108.929 39.333Z" fill="white"/>
<path d="M130.428 40.964C130.428 42.6337 129.846 43.9922 128.677 45.0409C127.393 46.187 125.604 46.7593 123.307 46.7593C121.185 46.7593 119.484 46.3522 118.197 45.5365L118.929 42.9154C120.316 43.7503 121.837 44.1692 123.495 44.1692C124.684 44.1692 125.61 43.9007 126.276 43.3668C126.938 42.8328 127.268 42.116 127.268 41.2221C127.268 40.4256 126.996 39.7545 126.449 39.2102C125.905 38.6659 124.997 38.16 123.729 37.6924C120.277 36.4107 118.553 34.533 118.553 32.0638C118.553 30.4502 119.157 29.1271 120.367 28.0976C121.573 27.0665 123.182 26.5518 125.194 26.5518C126.988 26.5518 128.479 26.863 129.668 27.484L128.879 30.0475C127.767 29.4457 126.511 29.1448 125.105 29.1448C123.994 29.1448 123.126 29.4177 122.504 29.9605C121.978 30.4458 121.714 31.0372 121.714 31.7379C121.714 32.5137 122.015 33.1553 122.619 33.6598C123.145 34.1259 124.101 34.6303 125.487 35.1746C127.184 35.8546 128.43 36.6496 129.231 37.5612C130.03 38.4698 130.428 39.607 130.428 40.964Z" fill="white"/>
<path d="M140.871 34.6748H137.39V41.5468C137.39 43.2947 138.003 44.1679 139.233 44.1679C139.797 44.1679 140.265 44.1192 140.636 44.0219L140.723 46.4099C140.101 46.6415 139.282 46.758 138.267 46.758C137.019 46.758 136.044 46.3789 135.341 45.6223C134.64 44.8641 134.287 43.5927 134.287 41.8064V34.6719H132.213V32.3119H134.287V29.7203L137.39 28.7881V32.3119H140.871V34.6748Z" fill="white"/>
<path d="M156.579 39.275C156.579 41.4506 155.954 43.2369 154.707 44.6337C153.398 46.0718 151.662 46.7887 149.498 46.7887C147.412 46.7887 145.751 46.0998 144.513 44.7222C143.274 43.3445 142.655 41.6055 142.655 39.5095C142.655 37.3162 143.292 35.5197 144.57 34.1228C145.846 32.7245 147.567 32.0254 149.732 32.0254C151.818 32.0254 153.496 32.7142 154.763 34.0933C155.975 35.4312 156.579 37.1584 156.579 39.275ZM153.302 39.3768C153.302 38.0714 153.022 36.9519 152.455 36.0182C151.793 34.8884 150.846 34.3249 149.619 34.3249C148.35 34.3249 147.385 34.8898 146.723 36.0182C146.156 36.9534 145.876 38.0906 145.876 39.4358C145.876 40.7412 146.156 41.8607 146.723 42.7929C147.406 43.9227 148.36 44.4862 149.591 44.4862C150.797 44.4862 151.744 43.9109 152.427 42.7634C153.009 41.812 153.302 40.6807 153.302 39.3768Z" fill="white"/>
<path d="M166.846 35.0806C166.533 35.0231 166.2 34.9936 165.85 34.9936C164.739 34.9936 163.88 35.411 163.276 36.2473C162.75 36.9848 162.486 37.917 162.486 39.0425V46.4691H159.329L159.359 36.7724C159.359 35.1411 159.319 33.6558 159.24 32.3165H161.991L162.107 35.0246H162.194C162.527 34.0938 163.053 33.3445 163.773 32.7826C164.477 32.2766 165.237 32.0244 166.056 32.0244C166.348 32.0244 166.612 32.0451 166.846 32.0819V35.0806Z" fill="white"/>
<path d="M180.972 38.7216C180.972 39.285 180.935 39.76 180.856 40.1479H171.381C171.418 41.5462 171.875 42.6156 172.755 43.3531C173.554 44.0124 174.587 44.3428 175.855 44.3428C177.258 44.3428 178.538 44.1201 179.689 43.6732L180.184 45.8562C178.838 46.4403 177.25 46.7308 175.418 46.7308C173.213 46.7308 171.483 46.0848 170.224 44.7942C168.967 43.5035 168.338 41.7704 168.338 39.5963C168.338 37.4619 168.923 35.6846 170.095 34.2671C171.321 32.7537 172.979 31.9971 175.065 31.9971C177.114 31.9971 178.665 32.7537 179.718 34.2671C180.552 35.4692 180.972 36.956 180.972 38.7216ZM177.96 37.9059C177.981 36.9737 177.775 36.1684 177.347 35.4884C176.8 34.6137 175.96 34.1771 174.83 34.1771C173.797 34.1771 172.957 34.6034 172.315 35.4589C171.79 36.1389 171.477 36.9545 171.381 37.9044L177.96 37.9059Z" fill="white"/>
<path d="M68.0986 18.386C69.1468 18.386 69.9611 18.0975 70.541 17.5202C71.1208 16.9425 71.4109 16.1451 71.4109 15.127C71.4109 14.1088 71.1208 13.3108 70.541 12.7334C69.9611 12.1561 69.1468 11.8673 68.0986 11.8673H66.6032V18.386H68.0986ZM65.1855 10.5326H68.1373C69.0911 10.5326 69.9224 10.7252 70.6311 11.1102C71.34 11.4952 71.8855 12.0362 72.2679 12.7334C72.6506 13.431 72.8416 14.2284 72.8416 15.127C72.8416 16.0252 72.6506 16.8229 72.2679 17.5202C71.8855 18.2174 71.34 18.7584 70.6311 19.1434C69.9224 19.5284 69.0911 19.7207 68.1373 19.7207H65.1855V10.5326Z" fill="white"/>
<path d="M74.6843 10.5326H76.102V19.7207H74.6843V10.5326Z" fill="white"/>
<path d="M79.0666 19.2578C78.4567 18.813 78.0313 18.1885 77.7908 17.3843L79.131 16.8452C79.2688 17.3584 79.5137 17.7779 79.8657 18.1028C80.218 18.428 80.6434 18.5904 81.1419 18.5904C81.6056 18.5904 81.9991 18.4708 82.3211 18.231C82.6434 17.9915 82.8044 17.6623 82.8044 17.2431C82.8044 16.8581 82.6626 16.5394 82.379 16.2869C82.0954 16.0345 81.6056 15.7885 80.9097 15.549L80.3298 15.3437C79.7025 15.1215 79.1806 14.8111 78.7638 14.4134C78.3471 14.0155 78.1388 13.4875 78.1388 12.8284C78.1388 12.3753 78.2614 11.9558 78.5062 11.5711C78.7511 11.1861 79.0945 10.8825 79.5372 10.6599C79.9796 10.4374 80.4802 10.3261 81.0388 10.3261C81.8378 10.3261 82.4781 10.5209 82.9592 10.9099C83.4403 11.2995 83.7669 11.7379 83.9391 12.2255L82.6626 12.7646C82.5768 12.4564 82.3963 12.1913 82.1214 11.9687C81.8465 11.7465 81.4898 11.6352 81.0514 11.6352C80.6307 11.6352 80.274 11.7465 79.9818 11.9687C79.6898 12.1913 79.5437 12.4736 79.5437 12.8158C79.5437 13.1324 79.6747 13.3953 79.9369 13.6049C80.1985 13.8148 80.6047 14.0133 81.1545 14.2017L81.7474 14.4069C82.5381 14.681 83.148 15.0358 83.5781 15.4719C84.0075 15.9084 84.2223 16.4904 84.2223 17.2172C84.2223 17.8161 84.0697 18.3189 83.7648 18.7251C83.4598 19.1317 83.0688 19.4329 82.592 19.6298C82.1149 19.8265 81.6273 19.9248 81.1288 19.9248C80.3641 19.9248 79.6768 19.7026 79.0666 19.2578Z" fill="white"/>
<path d="M89.2874 14.8187C89.7599 14.8187 90.14 14.6714 90.428 14.3761C90.7159 14.0808 90.8599 13.7368 90.8599 13.3432C90.8599 12.9495 90.7159 12.6052 90.428 12.3099C90.14 12.0149 89.7599 11.8673 89.2874 11.8673H87.4958V14.8187H89.2874ZM86.0781 10.5326H89.2487C89.7986 10.5326 90.3032 10.6525 90.7633 10.892C91.2227 11.1318 91.588 11.4653 91.8589 11.8929C92.1295 12.321 92.2648 12.8043 92.2648 13.3432C92.2648 13.882 92.1295 14.3653 91.8589 14.7931C91.588 15.221 91.2227 15.5548 90.7633 15.794C90.3032 16.0335 89.7986 16.1534 89.2487 16.1534H87.4958V19.7207H86.0781V10.5326Z" fill="white"/>
<path d="M99.9394 18.1478C100.451 17.8525 100.855 17.4419 101.151 16.9157C101.447 16.3896 101.596 15.7928 101.596 15.1258C101.596 14.4581 101.447 13.8617 101.151 13.3355C100.855 12.8093 100.451 12.3987 99.9394 12.1034C99.4283 11.8085 98.8633 11.6608 98.2447 11.6608C97.6258 11.6608 97.0608 11.8085 96.5496 12.1034C96.0385 12.3987 95.6348 12.8093 95.3382 13.3355C95.0419 13.8617 94.8933 14.4581 94.8933 15.1258C94.8933 15.7928 95.0419 16.3896 95.3382 16.9157C95.6348 17.4419 96.0385 17.8525 96.5496 18.1478C97.0608 18.4428 97.6258 18.5904 98.2447 18.5904C98.8633 18.5904 99.4283 18.4428 99.9394 18.1478ZM95.8085 19.2834C95.0781 18.8555 94.5044 18.276 94.088 17.5446C93.671 16.8128 93.4626 16.0067 93.4626 15.1258C93.4626 14.2445 93.671 13.4381 94.088 12.7067C94.5044 11.9752 95.0781 11.3957 95.8085 10.9679C96.5388 10.54 97.3509 10.3261 98.2447 10.3261C99.1382 10.3261 99.9478 10.54 100.674 10.9679C101.4 11.3957 101.972 11.9752 102.388 12.7067C102.805 13.4381 103.013 14.2445 103.013 15.1258C103.013 16.0067 102.805 16.8128 102.388 17.5446C101.972 18.276 101.4 18.8555 100.674 19.2834C99.9478 19.7112 99.1382 19.9248 98.2447 19.9248C97.3509 19.9248 96.5388 19.7112 95.8085 19.2834Z" fill="white"/>
<path d="M104.844 10.5326H106.519L110.695 17.2828H110.773L110.695 15.5116V10.5326H112.1V19.7207H110.631L106.249 12.6243H106.171L106.249 14.3955V19.7207H104.844V10.5326Z" fill="white"/>
<path d="M114.433 10.5326H115.851V19.7207H114.433V10.5326Z" fill="white"/>
<path d="M121.78 18.4119C122.226 18.4119 122.585 18.2772 122.856 18.0078C123.127 17.7381 123.262 17.4154 123.262 17.039C123.262 16.6623 123.122 16.3374 122.843 16.0637C122.564 15.7897 122.192 15.6528 121.728 15.6528H119.589V18.4119H121.78ZM121.561 14.3955C121.99 14.3955 122.334 14.2651 122.592 14.0037C122.85 13.7429 122.978 13.4415 122.978 13.0993C122.978 12.7572 122.851 12.4597 122.598 12.2073C122.345 11.9551 122.016 11.8288 121.612 11.8288H119.589V14.3955H121.561ZM118.171 10.5326H121.625C122.115 10.5326 122.57 10.6399 122.991 10.8535C123.412 11.0674 123.746 11.3605 123.99 11.7326C124.235 12.1046 124.358 12.5177 124.358 12.9711C124.358 13.4245 124.244 13.82 124.016 14.1578C123.788 14.496 123.485 14.7546 123.107 14.9343V14.9984C123.589 15.1612 123.971 15.4306 124.254 15.8069C124.538 16.1833 124.68 16.6281 124.68 17.1416C124.68 17.6462 124.549 18.0932 124.287 18.4825C124.024 18.8718 123.672 19.1754 123.23 19.3937C122.787 19.6116 122.304 19.7207 121.78 19.7207H118.171V10.5326Z" fill="white"/>
<path d="M126.549 10.5326H127.967V18.386H131.936V19.7207H126.549V10.5326Z" fill="white"/>
<path d="M133.431 10.5326H139.025V11.8673H134.849V14.4593H138.613V15.794H134.849V18.386H139.025V19.7207H133.431V10.5326Z" fill="white"/>
<path d="M144.425 19.2578C143.815 18.813 143.39 18.1885 143.149 17.3843L144.49 16.8452C144.627 17.3584 144.872 17.7779 145.224 18.1028C145.576 18.428 146.002 18.5904 146.5 18.5904C146.964 18.5904 147.357 18.4708 147.679 18.231C148.002 17.9915 148.163 17.6623 148.163 17.2431C148.163 16.8581 148.021 16.5394 147.738 16.2869C147.454 16.0345 146.964 15.7885 146.268 15.549L145.688 15.3437C145.061 15.1215 144.539 14.8111 144.122 14.4134C143.705 14.0155 143.497 13.4875 143.497 12.8284C143.497 12.3753 143.62 11.9558 143.865 11.5711C144.109 11.1861 144.453 10.8825 144.896 10.6599C145.338 10.4374 145.839 10.3261 146.397 10.3261C147.196 10.3261 147.836 10.5209 148.318 10.9099C148.799 11.2995 149.125 11.7379 149.297 12.2255L148.021 12.7646C147.935 12.4564 147.755 12.1913 147.48 11.9687C147.205 11.7465 146.848 11.6352 146.41 11.6352C145.989 11.6352 145.632 11.7465 145.34 11.9687C145.048 12.1913 144.902 12.4736 144.902 12.8158C144.902 13.1324 145.033 13.3953 145.295 13.6049C145.557 13.8148 145.963 14.0133 146.513 14.2017L147.106 14.4069C147.897 14.681 148.506 15.0358 148.936 15.4719C149.366 15.9084 149.581 16.4904 149.581 17.2172C149.581 17.8161 149.428 18.3189 149.123 18.7251C148.818 19.1317 148.427 19.4329 147.95 19.6298C147.473 19.8265 146.986 19.9248 146.487 19.9248C145.722 19.9248 145.035 19.7026 144.425 19.2578Z" fill="white"/>
<path d="M152.887 19.4631C152.358 19.1551 151.95 18.7187 151.662 18.154C151.374 17.5896 151.23 16.9348 151.23 16.1907V10.5314H152.635V16.2678C152.635 16.9607 152.816 17.5208 153.177 17.9487C153.537 18.3768 154.049 18.5904 154.71 18.5904C155.381 18.5904 155.896 18.3768 156.257 17.9487C156.618 17.5208 156.798 16.9607 156.798 16.2678V10.5314H158.204V16.1907C158.204 16.9265 158.062 17.5766 157.778 18.1413C157.495 18.7057 157.091 19.1443 156.566 19.4566C156.042 19.7688 155.423 19.9248 154.71 19.9248C154.023 19.9248 153.415 19.771 152.887 19.4631Z" fill="white"/>
<path d="M163.604 14.8187C164.05 14.8187 164.426 14.6778 164.731 14.3955C165.036 14.1131 165.189 13.758 165.189 13.3302C165.189 12.9369 165.049 12.5923 164.77 12.2973C164.491 12.002 164.119 11.8543 163.655 11.8543H161.825V14.8187H163.604ZM160.407 10.5326H163.642C164.201 10.5326 164.706 10.6525 165.157 10.892C165.608 11.1318 165.964 11.4653 166.227 11.8929C166.488 12.321 166.62 12.8043 166.62 13.3432C166.62 13.959 166.42 14.5046 166.021 14.979C165.621 15.454 165.12 15.7727 164.519 15.9352L164.506 15.9993L167.045 19.6436V19.7207H165.408L162.946 16.1149H161.825V19.7207H160.407V10.5326Z" fill="white"/>
</g>
<defs>
<clipPath id="clip0_115_6644">
<rect width="200" height="59" fill="white"/>
</clipPath>
</defs>
</svg>
