<svg width="200" height="60" viewBox="0 0 200 60" fill="none" xmlns="http://www.w3.org/2000/svg">
<mask id="mask0_115_6711" style="mask-type:luminance" maskUnits="userSpaceOnUse" x="0" y="0" width="200" height="60">
<path d="M0 0.740893H200V60H0V0.740893Z" fill="white"/>
</mask>
<g mask="url(#mask0_115_6711)">
<path d="M192.593 60H7.40749C3.33337 60 0 56.6669 0 52.5925V8.14827C0 4.07397 3.33337 0.74084 7.40749 0.74084H192.593C196.667 0.74084 200 4.07397 200 8.14827V52.5925C200 56.6669 196.667 60 192.593 60Z" fill="#100F0D"/>
<path d="M192.593 0.740893H7.40749C3.33337 0.740893 0 4.07433 0 8.14832V52.5926C0 56.6669 3.33337 60 7.40749 60H192.593C196.667 60 200 56.6669 200 52.5926V8.14832C200 4.07433 196.667 0.740893 192.593 0.740893ZM192.593 1.92603C196.024 1.92603 198.815 4.71705 198.815 8.14832V52.5926C198.815 56.0238 196.024 58.815 192.593 58.815H7.40749C3.97628 58.815 1.1853 56.0238 1.1853 52.5926V8.14832C1.1853 4.71705 3.97628 1.92603 7.40749 1.92603H192.593Z" fill="#A2A2A1"/>
<path d="M158.424 45.1869H161.189V26.6671H158.424V45.1869ZM183.323 33.338L180.155 41.3677H180.06L176.771 33.338H173.793L178.725 44.5603L175.913 50.8033H178.796L186.398 33.338H183.323ZM167.647 43.0832C166.74 43.0832 165.477 42.6299 165.477 41.5102C165.477 40.0803 167.049 39.5336 168.408 39.5336C169.623 39.5336 170.194 39.7959 170.934 40.1528C170.719 41.8686 169.242 43.0832 167.647 43.0832ZM167.98 32.9336C165.978 32.9336 163.904 33.8151 163.047 35.7677L165.501 36.7931C166.025 35.7677 167.002 35.4343 168.027 35.4343C169.457 35.4343 170.91 36.2922 170.934 37.8166V38.0076C170.433 37.7219 169.36 37.2937 168.051 37.2937C165.406 37.2937 162.713 38.747 162.713 41.4624C162.713 43.9411 164.882 45.5367 167.312 45.5367C169.171 45.5367 170.194 44.704 170.839 43.7262H170.934V45.1559H173.602V38.055C173.602 34.7677 171.149 32.9336 167.98 32.9336ZM150.895 35.5928H146.963V29.2432H150.895C152.962 29.2432 154.135 30.9559 154.135 32.4182C154.135 33.8538 152.962 35.5928 150.895 35.5928ZM150.824 26.6671H144.2V45.1869H146.963V38.1707H150.824C153.888 38.1707 156.9 35.9513 156.9 32.4182C156.9 28.8847 153.888 26.6671 150.824 26.6671ZM114.704 43.0863C112.794 43.0863 111.196 41.4878 111.196 39.2922C111.196 37.073 112.794 35.4491 114.704 35.4491C116.59 35.4491 118.068 37.073 118.068 39.2922C118.068 41.4878 116.59 43.0863 114.704 43.0863ZM117.877 34.3751H117.783C117.162 33.6358 115.969 32.9661 114.466 32.9661C111.314 32.9661 108.427 35.7352 108.427 39.2922C108.427 42.824 111.314 45.5693 114.466 45.5693C115.969 45.5693 117.162 44.9011 117.783 44.1368H117.877V45.0432C117.877 47.455 116.59 48.7426 114.513 48.7426C112.818 48.7426 111.768 47.5261 111.338 46.4995L108.928 47.5027C109.62 49.1735 111.458 51.2256 114.513 51.2256C117.759 51.2256 120.504 49.316 120.504 44.6624V33.3485H117.877V34.3751ZM122.412 45.1869H125.181V26.6655H122.412V45.1869ZM129.263 39.0773C129.192 36.6417 131.148 35.4017 132.556 35.4017C133.655 35.4017 134.586 35.95 134.895 36.738L129.263 39.0773ZM137.855 36.9767C137.329 35.5677 135.731 32.9661 132.461 32.9661C129.215 32.9661 126.519 35.5203 126.519 39.2686C126.519 42.8002 129.192 45.5693 132.771 45.5693C135.66 45.5693 137.329 43.8032 138.023 42.7767L135.875 41.3441C135.157 42.3943 134.18 43.0863 132.771 43.0863C131.363 43.0863 130.36 42.4417 129.716 41.1782L138.141 37.6921L137.855 36.9767ZM70.7323 34.9011V37.5736H77.1279C76.9366 39.0773 76.436 40.1752 75.6731 40.938C74.7412 41.8698 73.2849 42.8952 70.7323 42.8952C66.7929 42.8952 63.7146 39.7219 63.7146 35.7826C63.7146 31.8448 66.7929 28.6714 70.7323 28.6714C72.8567 28.6714 74.4078 29.5055 75.553 30.5795L77.4388 28.6952C75.8391 27.1677 73.7158 25.9974 70.7323 25.9974C65.3381 25.9974 60.8035 30.39 60.8035 35.7826C60.8035 41.1782 65.3381 45.5693 70.7323 45.5693C73.6434 45.5693 75.8391 44.6135 77.5573 42.824C79.3233 41.0581 79.8731 38.5767 79.8731 36.5708C79.8731 35.95 79.8254 35.3782 79.7292 34.9011H70.7323ZM87.144 43.0863C85.236 43.0863 83.5886 41.5114 83.5886 39.2686C83.5886 37.0002 85.236 35.4491 87.144 35.4491C89.0536 35.4491 90.701 37.0002 90.701 39.2686C90.701 41.5114 89.0536 43.0863 87.144 43.0863ZM87.144 32.9661C83.6595 32.9661 80.8196 35.6166 80.8196 39.2686C80.8196 42.8952 83.6595 45.5693 87.144 45.5693C90.6285 45.5693 93.47 42.8952 93.47 39.2686C93.47 35.6166 90.6285 32.9661 87.144 32.9661ZM100.942 43.0863C99.0332 43.0863 97.3855 41.5114 97.3855 39.2686C97.3855 37.0002 99.0332 35.4491 100.942 35.4491C102.852 35.4491 104.498 37.0002 104.498 39.2686C104.498 41.5114 102.852 43.0863 100.942 43.0863ZM100.942 32.9661C97.4583 32.9661 94.618 35.6166 94.618 39.2686C94.618 42.8952 97.4583 45.5693 100.942 45.5693C104.427 45.5693 107.267 42.8952 107.267 39.2686C107.267 35.6166 104.427 32.9661 100.942 32.9661Z" fill="white"/>
<path d="M30.692 29.519L14.9187 46.2599C14.9202 46.2627 14.9202 46.2673 14.9217 46.2701C15.4061 48.088 17.0653 49.4258 19.0357 49.4258C19.8239 49.4258 20.5632 49.2124 21.1972 48.8391L21.2476 48.8094L39.0017 38.5651L30.692 29.519Z" fill="#EB3131"/>
<path d="M46.649 26.6678L46.6341 26.6572L38.9688 22.2142L30.3333 29.8987L38.9997 38.5625L46.6236 34.164C47.9598 33.4408 48.8681 32.0322 48.8681 30.4083C48.8681 28.7935 47.9731 27.3922 46.649 26.6678Z" fill="#F6B60B"/>
<path d="M14.9187 14.4854C14.8237 14.8349 14.7734 15.2024 14.7734 15.5816V45.164C14.7734 45.5432 14.8237 45.9105 14.9201 46.2588L31.2341 29.946L14.9187 14.4854Z" fill="#5778C5"/>
<path d="M30.8087 30.3701L38.9715 22.2085L21.2382 11.9271C20.5938 11.5404 19.8412 11.3181 19.0367 11.3181C17.0664 11.3181 15.4042 12.659 14.9197 14.4782C14.9197 14.4797 14.9182 14.4813 14.9182 14.4828L30.8087 30.3701Z" fill="#3BAD49"/>
</g>
<mask id="mask1_115_6711" style="mask-type:luminance" maskUnits="userSpaceOnUse" x="0" y="0" width="200" height="60">
<path d="M0 0.740587H200V60H0V0.740587Z" fill="white"/>
</mask>
<g mask="url(#mask1_115_6711)">
<path d="M64.8161 18.8577C65.8644 18.8577 66.6786 18.5679 67.2585 17.988C67.8384 17.4078 68.1285 16.6069 68.1285 15.5843C68.1285 14.5617 67.8384 13.7602 67.2585 13.1803C66.6786 12.6004 65.8644 12.3103 64.8161 12.3103H63.3207V18.8577H64.8161ZM61.9031 10.9698H64.8548C65.8087 10.9698 66.6399 11.1633 67.3486 11.5499C68.0576 11.9366 68.6031 12.48 68.9854 13.1803C69.3681 13.8809 69.5591 14.6818 69.5591 15.5843C69.5591 16.4865 69.3681 17.2877 68.9854 17.988C68.6031 18.6883 68.0576 19.2317 67.3486 19.6184C66.6399 20.0051 65.8087 20.1982 64.8548 20.1982H61.9031V10.9698Z" fill="white"/>
<path d="M71.4021 10.9698H72.8197V20.1982H71.4021V10.9698Z" fill="white"/>
<path d="M75.7839 19.7324C75.174 19.2856 74.7486 18.6584 74.5081 17.8506L75.8483 17.3092C75.9861 17.8246 76.231 18.246 76.583 18.5723C76.9353 18.8989 77.3607 19.0621 77.8591 19.0621C78.3229 19.0621 78.7164 18.942 79.0384 18.7011C79.3607 18.4605 79.5217 18.1299 79.5217 17.7088C79.5217 17.3222 79.3799 17.002 79.0963 16.7485C78.8127 16.4949 78.3229 16.2479 77.6269 16.0073L77.0471 15.8011C76.4198 15.5779 75.8978 15.2661 75.4811 14.8667C75.0644 14.4671 74.856 13.9367 74.856 13.2748C74.856 12.8197 74.9786 12.3983 75.2235 12.0119C75.4684 11.6253 75.8118 11.3203 76.2545 11.0968C76.6969 10.8732 77.1975 10.7615 77.756 10.7615C78.5551 10.7615 79.1954 10.9571 79.6765 11.3479C80.1576 11.7392 80.4842 12.1794 80.6563 12.6692L79.3799 13.2107C79.2941 12.9011 79.1136 12.6349 78.8387 12.4113C78.5638 12.1881 78.2071 12.0763 77.7687 12.0763C77.348 12.0763 76.9913 12.1881 76.6991 12.4113C76.4071 12.6349 76.261 12.9184 76.261 13.2621C76.261 13.5801 76.392 13.8441 76.6542 14.0547C76.9158 14.2655 77.322 14.4649 77.8718 14.654L78.4647 14.8602C79.2554 15.1355 79.8653 15.4918 80.2954 15.9299C80.7248 16.3683 80.9396 16.9528 80.9396 17.6828C80.9396 18.2844 80.787 18.7893 80.482 19.1974C80.1771 19.6058 79.7861 19.9082 79.3093 20.1061C78.8322 20.3036 78.3446 20.4023 77.8461 20.4023C77.0814 20.4023 76.3941 20.1791 75.7839 19.7324Z" fill="white"/>
<path d="M86.0049 15.2747C86.4774 15.2747 86.8576 15.1267 87.1455 14.8301C87.4334 14.5335 87.5774 14.188 87.5774 13.7927C87.5774 13.3973 87.4334 13.0515 87.1455 12.7549C86.8576 12.4586 86.4774 12.3103 86.0049 12.3103H84.2133V15.2747H86.0049ZM82.7957 10.9698H85.9662C86.5161 10.9698 87.0207 11.0902 87.4808 11.3307C87.9402 11.5716 88.3056 11.9066 88.5765 12.336C88.847 12.766 88.9823 13.2515 88.9823 13.7927C88.9823 14.3338 88.847 14.8193 88.5765 15.249C88.3056 15.6787 87.9402 16.014 87.4808 16.2543C87.0207 16.4948 86.5161 16.6153 85.9662 16.6153H84.2133V20.1982H82.7957V10.9698Z" fill="white"/>
<path d="M96.6572 18.6175C97.1687 18.3209 97.5724 17.9085 97.8686 17.3801C98.1652 16.8516 98.3135 16.2522 98.3135 15.5822C98.3135 14.9116 98.1652 14.3126 97.8686 13.7841C97.5724 13.2556 97.1687 12.8432 96.6572 12.5466C96.1461 12.2503 95.581 12.102 94.9625 12.102C94.3436 12.102 93.7786 12.2503 93.2674 12.5466C92.7563 12.8432 92.3526 13.2556 92.056 13.7841C91.7597 14.3126 91.6111 14.9116 91.6111 15.5822C91.6111 16.2522 91.7597 16.8516 92.056 17.3801C92.3526 17.9085 92.7563 18.3209 93.2674 18.6175C93.7786 18.9138 94.3436 19.0621 94.9625 19.0621C95.581 19.0621 96.1461 18.9138 96.6572 18.6175ZM92.5262 19.7581C91.7959 19.3284 91.2222 18.7463 90.8058 18.0116C90.3888 17.2766 90.1804 16.4671 90.1804 15.5822C90.1804 14.6971 90.3888 13.8872 90.8058 13.1525C91.2222 12.4178 91.7959 11.8358 92.5262 11.4061C93.2566 10.9763 94.0687 10.7615 94.9625 10.7615C95.856 10.7615 96.6656 10.9763 97.3919 11.4061C98.1179 11.8358 98.6894 12.4178 99.1061 13.1525C99.5228 13.8872 99.7312 14.6971 99.7312 15.5822C99.7312 16.4671 99.5228 17.2766 99.1061 18.0116C98.6894 18.7463 98.1179 19.3284 97.3919 19.7581C96.6656 20.1878 95.856 20.4023 94.9625 20.4023C94.0687 20.4023 93.2566 20.1878 92.5262 19.7581Z" fill="white"/>
<path d="M101.562 10.9698H103.237L107.413 17.7496H107.49L107.413 15.9707V10.9698H108.818V20.1982H107.349L102.966 13.0707H102.889L102.966 14.8496V20.1982H101.562V10.9698Z" fill="white"/>
<path d="M111.151 10.9698H112.569V20.1982H111.151V10.9698Z" fill="white"/>
<path d="M118.498 18.8837C118.944 18.8837 119.303 18.7484 119.574 18.4778C119.844 18.2069 119.98 17.8828 119.98 17.5047C119.98 17.1264 119.84 16.8001 119.561 16.5252C119.282 16.2499 118.91 16.1125 118.446 16.1125H116.306V18.8837H118.498ZM118.278 14.8496C118.708 14.8496 119.052 14.7187 119.309 14.4561C119.567 14.1942 119.696 13.8914 119.696 13.5478C119.696 13.2041 119.569 12.9054 119.316 12.6518C119.062 12.3986 118.734 12.2716 118.33 12.2716H116.306V14.8496H118.278ZM114.889 10.9698H118.343C118.833 10.9698 119.288 11.0775 119.709 11.2921C120.13 11.5069 120.463 11.8013 120.708 12.175C120.953 12.5487 121.075 12.9636 121.075 13.419C121.075 13.8744 120.961 14.2716 120.734 14.6109C120.506 14.9506 120.203 15.2103 119.825 15.3908V15.4552C120.306 15.6187 120.689 15.8893 120.972 16.2673C121.256 16.6453 121.397 17.092 121.397 17.6078C121.397 18.1146 121.266 18.5636 121.004 18.9546C120.742 19.3456 120.39 19.6506 119.948 19.8698C119.505 20.0886 119.021 20.1982 118.498 20.1982H114.889V10.9698Z" fill="white"/>
<path d="M123.266 10.9698H124.684V18.8577H128.653V20.1982H123.266V10.9698Z" fill="white"/>
<path d="M130.149 10.9698H135.743V12.3103H131.567V14.9137H135.33V16.2543H131.567V18.8577H135.743V20.1982H130.149V10.9698Z" fill="white"/>
<path d="M141.143 19.7324C140.533 19.2856 140.107 18.6584 139.867 17.8506L141.207 17.3092C141.345 17.8246 141.59 18.246 141.942 18.5723C142.294 18.8989 142.719 19.0621 143.218 19.0621C143.682 19.0621 144.075 18.942 144.397 18.7011C144.719 18.4605 144.881 18.1299 144.881 17.7088C144.881 17.3222 144.739 17.002 144.455 16.7485C144.172 16.4949 143.682 16.2479 142.986 16.0073L142.406 15.8011C141.778 15.5779 141.257 15.2661 140.84 14.8667C140.423 14.4671 140.215 13.9367 140.215 13.2748C140.215 12.8197 140.337 12.3983 140.582 12.0119C140.827 11.6253 141.17 11.3203 141.613 11.0968C142.056 10.8732 142.556 10.7615 143.115 10.7615C143.914 10.7615 144.554 10.9571 145.035 11.3479C145.516 11.7392 145.843 12.1794 146.015 12.6692L144.739 13.2107C144.653 12.9011 144.473 12.6349 144.198 12.4113C143.922 12.1881 143.566 12.0763 143.128 12.0763C142.707 12.0763 142.35 12.1881 142.058 12.4113C141.766 12.6349 141.62 12.9184 141.62 13.2621C141.62 13.5801 141.751 13.8441 142.013 14.0547C142.275 14.2655 142.681 14.4649 143.231 14.654L143.824 14.8602C144.614 15.1355 145.224 15.4918 145.654 15.9299C146.084 16.3683 146.298 16.9528 146.298 17.6828C146.298 18.2844 146.146 18.7893 145.841 19.1974C145.536 19.6058 145.145 19.9082 144.668 20.1061C144.191 20.3036 143.703 20.4023 143.205 20.4023C142.44 20.4023 141.753 20.1791 141.143 19.7324Z" fill="white"/>
<path d="M149.605 19.9386C149.076 19.6293 148.668 19.1909 148.38 18.6237C148.092 18.0568 147.948 17.3992 147.948 16.6519V10.9677H149.353V16.7293C149.353 17.4253 149.533 17.9878 149.894 18.4175C150.255 18.8475 150.767 19.0621 151.428 19.0621C152.098 19.0621 152.614 18.8475 152.975 18.4175C153.336 17.9878 153.516 17.4253 153.516 16.7293V10.9677H154.921V16.6519C154.921 17.3909 154.78 18.0438 154.496 18.611C154.212 19.1779 153.808 19.6184 153.284 19.9321C152.76 20.2457 152.141 20.4023 151.428 20.4023C150.741 20.4023 150.133 20.2479 149.605 19.9386Z" fill="white"/>
<path d="M160.321 15.2747C160.768 15.2747 161.144 15.1332 161.449 14.8496C161.754 14.566 161.907 14.2094 161.907 13.7797C161.907 13.3846 161.767 13.0385 161.488 12.7422C161.209 12.4456 160.837 12.2973 160.373 12.2973H158.543V15.2747H160.321ZM157.125 10.9698H160.36C160.919 10.9698 161.423 11.0902 161.875 11.3307C162.326 11.5716 162.682 11.9066 162.945 12.336C163.206 12.766 163.337 13.2515 163.337 13.7927C163.337 14.4112 163.138 14.9592 162.738 15.4357C162.339 15.9128 161.838 16.2329 161.236 16.3961L161.223 16.4605L163.763 20.1208V20.1982H162.126L159.664 16.5766H158.543V20.1982H157.125V10.9698Z" fill="white"/>
</g>
</svg>
